<svg width="128" height="128" viewBox="0 0 128 128" fill="none" xmlns="http://www.w3.org/2000/svg">

    <path d="M64 42V58M64 58H34V72M64 58H94V72" stroke="#38BDF8" stroke-width="4" stroke-linejoin="round" stroke-linecap="round"/>

    <rect x="34" y="20" width="60" height="22" rx="6" fill="#92400E" stroke="#F59E0B" stroke-width="2"/>
    <rect x="42" y="28" width="10" height="6" rx="1" fill="#F59E0B"/>
    <rect x="76" y="28" width="10" height="6" rx="1" fill="#F59E0B"/>

    <rect x="14" y="72" width="44" height="28" rx="6" fill="#065F46" stroke="#10B981" stroke-width="2"/>
    <circle cx="26" cy="86" r="5" fill="#10B981" />
    <rect x="36" y="83" width="14" height="6" rx="1" fill="#10B981"/>

    <rect x="70" y="72" width="44" height="28" rx="6" fill="#065F46" stroke="#10B981" stroke-width="2"/>
    <circle cx="82" cy="86" r="5" fill="#10B981"/>
    <rect x="92" y="83" width="14" height="6" rx="1" fill="#10B981"/>

    <rect x="22" y="55" width="16" height="8" rx="2" fill="#1E293B" stroke="#38BDF8" stroke-width="1"/>
    <rect x="90" y="55" width="16" height="8" rx="2" fill="#1E293B" stroke="#38BDF8" stroke-width="1"/>
</svg>